<?xml version="1.0" encoding="UTF-8"?>
<svg id="Capa_3" data-name="Capa 3" xmlns="http://www.w3.org/2000/svg" viewBox="0 0 875.64 1033">
  <defs>
    <style>
      .cls-1 {
        fill: #ec5c38;
      }
    </style>
  </defs>
  <path class="cls-1" d="M199.38,305.56v6.78c1.56-1.35,3.12-2.71,4.69-4.08l-4.69-2.7Z"/>
  <path class="cls-1" d="M875.64,535.63c-51.12,37.45-105.56,80.31-161.82,129.14v225.5h-99.5l-49.29-85.38-108.43-187.81-52.06,90.17-105.66,183.02h-99.5v-272.24l270.61-156.23-35-20.21-230.92-133.33-4.69-2.7V123.32h188.59C425.27,80.11,457.66,38.55,485.61,0l-14.14,123.32h242.35v200.85H428.27l16.84,29.16,88.7,153.64,75.78,131.26,68.78-119.14,35.45-61.39v64.36c53.94,4.53,107.88,9.05,161.82,13.57Z"/>
  <path class="cls-1" d="M198.38,367.34v-55c-5.15,4.46-10.28,8.86-15.39,13.2-1.02,.87-2.04,1.73-3.06,2.59-8.38,7.08-16.72,13.99-25,20.74C100.22,393.46,47.81,430.96,0,462.3c51.64,4.33,103.29,8.66,154.93,12.99,8.33,.7,16.67,1.4,25,2.1,6,.5,12,1,18,1.5v77.63l116.52-67.27,47.54-27.45-163.61-94.46Z"/>
  <path class="cls-1" d="M529,842.49l-72.4-125.41-66.36,114.94-28.36,49.12h22.73l-1.05,9.13-1.82,15.87-2.86,25-11.68,101.86c25.13-32.76,52.56-66.86,82.44-101.86,7.06-8.29,14.27-16.62,21.61-25,4.62-5.27,9.3-10.57,14.04-15.87,2.7-3.04,5.43-6.08,8.17-9.13h57.86l-22.32-38.65Z"/>
  <polygon class="cls-1" points="704.31 374.17 623.31 514.47 609.59 538.23 594.48 512.06 514.87 374.17 704.31 374.17"/>
</svg>