<?xml version="1.0"?>
<svg width="968" height="1033" xmlns="http://www.w3.org/2000/svg" xmlns:svg="http://www.w3.org/2000/svg" data-name="Capa 3">
 <g class="layer">
  <title>Layer 1</title>
  <path d="m245.06,305.56l0,6.78c1.56,-1.35 3.12,-2.71 4.69,-4.08l-4.69,-2.7z" fill="#202630" id="svg_1"/>
  <path d="m921.32,535.63c-51.12,37.45 -105.56,80.31 -161.82,129.14l0,225.5l-99.5,0l-49.29,-85.38l-108.43,-187.81l-52.06,90.17l-105.66,183.02l-99.5,0l0,-272.24l270.61,-156.23l-35,-20.21l-230.92,-133.33l-4.69,-2.7l0,-182.24l188.59,0c37.3,-43.21 69.69,-84.77 97.64,-123.32l-14.14,123.32l242.35,0l0,200.85l-285.55,0l16.84,29.16l88.7,153.64l75.78,131.26l68.78,-119.14l35.45,-61.39l0,64.36c53.94,4.53 107.88,9.05 161.82,13.57z" fill="#202630" id="svg_2"/>
  <path d="m244.06,367.34l0,-55c-5.15,4.46 -10.28,8.86 -15.39,13.2c-1.02,0.87 -2.04,1.73 -3.06,2.59c-8.38,7.08 -16.72,13.99 -25,20.74c-54.71,44.59 -107.12,82.09 -154.93,113.43c51.64,4.33 103.29,8.66 154.93,12.99c8.33,0.7 16.67,1.4 25,2.1c6,0.5 12,1 18,1.5l0,77.63l116.52,-67.27l47.54,-27.45l-163.61,-94.46z" fill="#202630" id="svg_3"/>
  <path d="m574.68,842.49l-72.4,-125.41l-66.36,114.94l-28.36,49.12l22.73,0l-1.05,9.13l-1.82,15.87l-2.86,25l-11.68,101.86c25.13,-32.76 52.56,-66.86 82.44,-101.86c7.06,-8.29 14.27,-16.62 21.61,-25c4.62,-5.27 9.3,-10.57 14.04,-15.87c2.7,-3.04 5.43,-6.08 8.17,-9.13l57.86,0l-22.32,-38.65z" fill="#202630" id="svg_4"/>
  <polygon fill="#202630" id="svg_5" points="749.99 374.17 668.99 514.47 655.27 538.23 640.16 512.06 560.55 374.17 749.99 374.17"/>
 </g>
</svg>